<svg xmlns="http://www.w3.org/2000/svg" viewBox="0 0 107.1 132.8">
  <path fill="#313A68" d="M62.9 123c-5.8 3.4-13 3.3-18.8-.1L18 107.8c-.6-.4-1.2-.7-1.7-1.1.7 4.7 3.4 9 7.5 11.4l21.8 12.6c4.8 2.8 10.8 2.8 15.6 0L83.1 118c4.2-2.4 7-6.6 7.6-11.2-.6.4-1.1.8-1.7 1.1L62.9 123z"/>
  <path fill="#465191" d="M95.9 95.7L91 98.6l-26.2 15.2c-6.9 4-15.5 4-22.4 0L16.1 98.6l-4.9-2.9c-.8-.5-1.6-1-2.4-1.6.7 5 3.4 9.6 7.5 12.6.6.4 1.1.8 1.7 1.1L44.2 123c5.8 3.4 13 3.4 18.8 0l26.1-15.1c.6-.3 1.2-.7 1.7-1.1 4.1-3 6.8-7.7 7.5-12.7-.8.6-1.5 1.1-2.4 1.6z"/>
  <path fill="#7B80DE" d="M95.9 21L64.7 3c-6.9-4-15.5-4-22.4 0L11.2 21C4.3 25 0 32.4 0 40.4v36c0 7 3.3 13.6 8.8 17.8.7.6 1.5 1.1 2.4 1.6l4.9 2.9 26.2 15.2c6.9 4 15.5 4 22.4 0L91 98.6l4.9-2.9c.8-.5 1.6-1 2.4-1.6 5.5-4.2 8.8-10.8 8.8-17.8v-36c0-7.9-4.2-15.3-11.2-19.3z"/>
  <path fill="#FFF" d="M61.8 68.5c.4-.3.8-.5 1.1-.5.3-.1.6-.1.8-.1.5 0 .9.1 1.3.3.4.2.8.6 1.2 1.3l4.7 7.1c.1.2.3.5.4.7.1.3.2.5.2.7 0 .6-.2 1.2-.6 1.6s-.8.8-1.3 1.1c-2.3 1.6-4.8 2.9-7.5 3.8-2.7 1-5.6 1.4-8.6 1.4-2.5 0-4.9-.3-7.2-1-2.3-.6-4.5-1.6-6.5-2.7-2-1.2-3.8-2.6-5.5-4.3-1.7-1.7-3.1-3.5-4.3-5.5-1.2-2-2.1-4.2-2.7-6.6-.7-2.4-1-4.8-1-7.4 0-2.6.3-5 1-7.4s1.6-4.6 2.7-6.6 2.6-3.9 4.3-5.5c1.7-1.7 3.5-3.1 5.5-4.2 2-1.2 4.2-2.1 6.5-2.7 2.3-.6 4.7-1 7.2-1 3 0 5.8.4 8.4 1.2 2.6.8 5 2 7.2 3.6l-.1-.2c.6.4 1.1.8 1.5 1.3s.5 1.1.5 1.8c0 .5-.2 1-.5 1.5l-3.7 6.3c-.8 1.4-1.7 2-2.8 2-.3 0-.6-.1-.9-.2-.4-.1-.8-.3-1.2-.6-1.2-.8-2.5-1.5-3.9-2s-2.9-.8-4.5-.8c-1.8 0-3.4.4-4.8 1.1-1.5.7-2.7 1.7-3.8 2.9-1 1.2-1.9 2.6-2.4 4.3-.6 1.6-.9 3.3-.9 5.1s.3 3.6.9 5.2c.6 1.6 1.4 3 2.4 4.2s2.3 2.1 3.8 2.8c1.5.7 3.1 1 4.8 1 1.6 0 3.1-.3 4.5-.8 1.2-.6 2.5-1.3 3.8-2.2z"/>
</svg>
